# xmcd
#
# Track frame offsets:
#	150
#	7778
#	21128
#	34113
#	45375
#	57560
#	71060
#	82918
#	94713
#	110153
#	122980
#
# Disc length: 1808 seconds
#
# Revision: 1
# Processed by: cddbd v1.5.1PL0 Copyright (c) Steve Scherf et al.
# Submitted via: audiograbber 1.83.01
#
DISCID=89070e0b
DTITLE=Sing-a-Long - Lovin in the Sixties
DYEAR=1900
DGENRE=country
TTITLE0=Data Track
TTITLE1=Along comes mary
TTITLE2=Baby love
TTITLE3=Chantilly lace
TTITLE4=Misty
TTITLE5=My Guy
TTITLE6=Only You
TTITLE7=Please Mr Postman
TTITLE8=Stand by me
TTITLE9=Where did our love go
TTITLE10=Will you still love me tomorrow
EXTD=Karaoke
EXTT0=
EXTT1=
EXTT2=
EXTT3=
EXTT4=
EXTT5=
EXTT6=
EXTT7=
EXTT8=
EXTT9=
EXTT10=
PLAYORDER=
